<svg xmlns="http://www.w3.org/2000/svg" viewBox="381 302 44 14" aria-label="Avolo" fill="currentColor">
  <path d="M391.1,303.29s-.24.31-.14.46c0,0,.03.12.43.13l.36,1.36s.21,0,.33-.19l.39-1.45,1.85-.96.93,3.28s.05.13.24.06c0,0,.24-.07.22-.35l.33-3.92,1.72-.91s.73-.53.53-.96c0,0-.37-.42-1.26.01l-1.54.8-3.6-1.96s-.32-.08-.37.23l2.25,2.66-1.83.96-1.45-.46s-.26.04-.29.17l.92,1.03h-.02Z"/>
  <path d="M391.79,305.69h2.03l2.27,6.8,2.28-6.8h1.84l-3.19,8.64h-2.03l-3.19-8.64h0Z"/>
  <path d="M400.15,310.12c0-.61.07-1.18.22-1.7.15-.53.38-1.02.68-1.47.31-.45.74-.81,1.3-1.07s1.21-.4,1.96-.4c1.34,0,2.35.39,3.05,1.18.74.84,1.1,1.93,1.1,3.26,0,.65-.1,1.28-.29,1.9s-.46,1.12-.8,1.5c-.74.82-1.76,1.24-3.08,1.24s-2.31-.4-3.07-1.19c-.71-.76-1.07-1.84-1.07-3.24h0ZM402.1,310.06c0,1.06.22,1.86.65,2.42.34.46.87.7,1.57.7s1.28-.27,1.62-.8c.39-.58.59-1.41.59-2.48,0-.61-.07-1.12-.22-1.55-.34-1.02-1-1.54-1.98-1.54-.68,0-1.21.24-1.6.73-.42.52-.64,1.36-.64,2.52h.01Z"/>
  <path d="M409.81,314.33v-8.66h1.9v7.19h3.72v1.48h-5.62Z"/>
  <path d="M415.56,310.12c0-.61.07-1.18.22-1.7.15-.53.38-1.02.68-1.47.31-.45.74-.81,1.3-1.07s1.21-.4,1.96-.4c1.34,0,2.35.39,3.05,1.18.74.84,1.1,1.93,1.1,3.26,0,.65-.1,1.28-.29,1.9s-.46,1.12-.8,1.5c-.74.82-1.76,1.24-3.08,1.24s-2.31-.4-3.07-1.19c-.71-.76-1.07-1.84-1.07-3.24h0ZM417.5,310.06c0,1.06.22,1.86.65,2.42.34.46.87.7,1.57.7s1.28-.27,1.62-.8c.39-.58.59-1.41.59-2.48,0-.61-.07-1.12-.22-1.55-.34-1.02-1-1.54-1.98-1.54-.68,0-1.21.24-1.6.73-.42.52-.64,1.36-.64,2.52h.01Z"/>
  <path d="M388.92,305.66h0l-1.39.72-1.32.69s-.49,1.59-1.37,4.01c.51.13,1.42.09,1.65-.02l1.28-3.7,2.29,6.97h1.87l-3.01-8.68h0Z"/>
  <path d="M385.88,313.23c-1.24.06-2.81-.2-3.54-.96s-1.17-2.61.19-4.09c1.23-1.34,3.13-2.36,3.62-2.61s2.72-1.31,3.85-1.74l.17.34c-.43.28-2.4,1.31-3.51,1.92s-2.22,1.42-3.11,2.59c-.64.85-.77,2.72,1.03,3.05.92.17,2.43-.02,4.15-.28l.43,1.41c-.5.08-2.24.33-3.29.38h.01Z"/>
</svg>
